<svg xmlns="http://www.w3.org/2000/svg" fill="none" viewBox="140 170 760 760"><defs><filter id="a" width="140%" height="140%" x="-20%" y="-20%" color-interpolation-filters="linearRGB" filterUnits="objectBoundingBox" primitiveUnits="userSpaceOnUse"><feMorphology in="SourceAlpha" operator="dilate" radius="20 20" result="morphology"/><feFlood flood-color="#fff" flood-opacity="1" result="flood"/><feComposite in="flood" in2="morphology" operator="in" result="composite"/><feMerge result="merge"><feMergeNode in="composite"/><feMergeNode in="SourceGraphic"/></feMerge></filter></defs><g filter="url(#a)"><g fill="#fff"><path fill-rule="evenodd" stroke="#000" stroke-linecap="round" stroke-linejoin="round" stroke-width="24" d="M532 379c132.54834 0 240 107.45166 240 240S664.54834 879 532 879c-96.86737 0-180.331102-77.387798-218.247225-160.019425l-.429829.008707L312 719c-44.18278 0-80-35.81722-80-80 0-39.865044 29.158843-72.919675 67.312086-78.99945C325.599297 455.979213 419.809919 379 532 379M295.858895 624.545187l8.28221 30.909626"/></g><path fill-rule="evenodd" stroke="#000" stroke-linecap="round" stroke-linejoin="round" stroke-width="16" d="M637.78123688 595.78310682c24.06538574 41.89334169 35.16329107 70.87111628 33.293715 86.93332374s-16.89455996 20.82339706-45.07495169 14.28356977"/><path fill-rule="evenodd" stroke="#000" stroke-linecap="round" stroke-linejoin="round" stroke-width="16" d="M572 769c13.775809 5.333333 27.109142 8 40 8s26.224191-2.666667 40-8"/><path fill="#000" fill-rule="evenodd" d="M570 507c5.854822 0 11.122051 4.025253 14.779642 10.440484L578 531l11.369946.000208C589.781247 533.557105 590 536.237678 590 539c0 17.673112-8.954305 32-20 32s-20-14.326888-20-32 8.954305-32 20-32m138 0c5.854822 0 11.122051 4.025253 14.779642 10.440484L716 531l11.369946.000208C727.781247 533.557105 728 536.237678 728 539c0 17.673112-8.954305 32-20 32s-20-14.326888-20-32 8.954305-32 20-32"/><g fill-rule="evenodd" stroke="#000" stroke-linecap="round" stroke-linejoin="round" stroke-width="16"><path d="M525 508q19.33333335-16 45-16t45 16M663 508q19.3333335-16 45-16t45 16"/></g><path fill="#000" fill-rule="evenodd" stroke="#000" stroke-linecap="round" stroke-linejoin="round" stroke-width="12" d="M429 249c23-11 138.078089-38.268699 200-10 122.666667 56 179 175 169 357-91.333333-91.333333-161.666667-139.333333-211-144-3.150544-.298024-6.572975-.818004-10.267294-1.559938l1.890437 1.746116C595.446627 467.677375 615.572664 484.948764 639 504q-110.768304-36.657297-156.771429-73.170732c-10.978332-8.713682-21.410892-19.183697-31.29768-31.410046C448.886906 440.886337 443.90983 479.746614 436 516q-11.88 54.45-68.8446 137.3229L366 655l-37.883337-90.175012h-40.97089C261.048591 494.941663 255 439.333333 269 398s42.333333-60.333333 85-57c11.105394-42.731565 36.105394-73.398232 75-92"/></g></svg>